
<svg width="512px" height="512px" viewBox="0 0 512 512" version="1.1" xmlns="http://www.w3.org/2000/svg" xmlns:xlink="http://www.w3.org/1999/xlink">
    <g id="Page-1" stroke="none" stroke-width="1" fill="none" fill-rule="evenodd">
        <rect id="Rectangle" fill="#000000" x="0" y="0" width="512" height="512" rx="118"></rect>
        <g id="Group" transform="translate(73, 48)" fill="#87E64B" fill-rule="nonzero">
            <path d="M160.775389,3.48067457 C187.966061,17.6624147 204.194166,46.0978386 211.498286,86.0257612 C211.595618,86.5578271 211.678466,87.0891843 211.74711,87.6194294 C228.267856,84.3328905 244.915942,83.0975566 261.26555,84.6929337 C312.319162,89.6746905 349.642336,121.840171 360.947256,182.054096 C378.463964,275.354167 320.228478,352.899617 195.751309,412.9674 C191.311533,415.109862 186.61149,416.078162 182.000241,415.995048 C177.38987,416.078442 172.68911,415.110172 168.248691,412.9674 C43.7715222,352.899617 -14.4639637,275.354167 3.05274419,182.054096 C14.357663,121.840171 51.6808386,89.6746905 102.734451,84.6929337 C118.066089,83.1968888 133.660197,84.1900341 149.167159,87.0284897 C144.902692,70.188234 138.907457,60.9116759 132.416111,57.5260082 C117.446692,49.7184626 111.660021,31.2907362 119.491219,16.3665294 C127.322417,1.44232264 145.80597,-4.32687109 160.775389,3.48067457 Z M210.469148,150.885182 C206.07071,152.140778 202.04341,153.48051 198.511108,154.801141 C197.324155,155.24491 196.30181,155.64626 195.458898,155.991994 C195.195943,156.09985 194.982959,156.188999 194.821769,156.257785 L194.779431,156.274507 L194.007245,156.603075 C190.081028,158.20541 186.004506,158.927304 182.001647,158.855952 C177.996855,158.927545 173.919628,158.205678 169.992755,156.603075 L169.239843,156.280953 L169.178231,156.257785 C169.017041,156.188999 168.804057,156.09985 168.541102,155.991994 C167.69819,155.64626 166.675845,155.24491 165.488892,154.801141 C161.956589,153.48051 157.929289,152.140778 153.530851,150.885182 C137.925724,146.430477 122.272768,144.313702 108.642309,145.643748 C83.8664548,148.061349 69.1630418,160.732895 63.0317114,193.390491 C52.1063834,251.582583 88.9782752,303.768935 181.997238,351.462309 C275.022254,303.768185 311.893538,251.582165 300.968288,193.390491 C294.836958,160.732895 280.133546,148.061349 255.357692,145.643748 C241.727232,144.313702 226.074276,146.430477 210.469148,150.885182 Z" id="logo_shape"></path>
        </g>
    </g>
</svg>