
<svg width="250px" height="74px" viewBox="0 0 250 74" version="1.1" xmlns="http://www.w3.org/2000/svg" xmlns:xlink="http://www.w3.org/1999/xlink">
    <defs>
        <linearGradient x1="49.9984472%" y1="100.265508%" x2="49.9984472%" y2="-260.382794%" id="linearGradient-4-73ravnk3-1">
            <stop stop-color="#1A1A1A" stop-opacity="0.1" offset="0%"></stop>
            <stop stop-color="#212121" stop-opacity="0.151" offset="12.3%"></stop>
            <stop stop-color="#353535" stop-opacity="0.227" offset="30.8%"></stop>
            <stop stop-color="#575757" stop-opacity="0.318" offset="53.2%"></stop>
            <stop stop-color="#858585" stop-opacity="0.421" offset="78.3%"></stop>
            <stop stop-color="#B3B3B3" stop-opacity="0.51" offset="100%"></stop>
        </linearGradient>
    </defs>
    <g id="Page-1" stroke="none" stroke-width="1" fill="none" fill-rule="evenodd">
        <g id="Group" fill-rule="nonzero">
            <path d="M248,64.8829005 C248,66.7717602 247.253428,68.5831486 245.924727,69.9180768 C244.596026,71.253005 242.794191,72.0019687 240.916105,72 L9.09313365,72 C5.18050563,72.0041038 2.00509908,68.8179701 2,64.8829005 L2,8.12638675 C2.00509638,4.18981494 5.17900998,1.00102181 9.09313365,1 L240.914257,1 C242.793343,1 244.59544,1.75087283 245.923981,3.08738303 C247.252522,4.42389324 248,6.23652236 248,8.12638675 L248,64.8829005 Z" id="Path" fill="#FFFFFF"></path>
            <path d="M241.23964,74 L8.76221031,74 C3.92918003,73.9989883 0.00919593474,70.090617 0,65.2637475 L0,8.74550501 C0.00714968907,3.91628968 3.92683627,0.00407603981 8.76221031,0 L241.237787,0 C246.072317,0.0061096121 249.990812,3.91713418 250,8.74550501 L250,65.2637475 C250.003703,70.0824727 246.06636,74 241.23964,74 L241.23964,74 Z" id="Path" fill="#A6A6A6"></path>
            <path d="M248,64.8829005 C248,66.7717602 247.253428,68.5831486 245.924727,69.9180768 C244.596026,71.253005 242.794191,72.0019687 240.916105,72 L9.09313365,72 C5.18050563,72.0041038 2.00509908,68.8179701 2,64.8829005 L2,8.12638675 C2.00509638,4.18981494 5.17900998,1.00102181 9.09313365,1 L240.914257,1 C242.793343,1 244.59544,1.75087283 245.923981,3.08738303 C247.252522,4.42389324 248,6.23652236 248,8.12638675 L248,64.8829005 Z" id="Path" fill="#000000"></path>
            <path d="M55.7387068,36.994507 C55.685614,31.0567686 60.570155,28.1680396 60.7935111,28.0335516 C58.0271912,23.974961 53.7394869,23.4204281 52.2327488,23.3762129 C48.6315898,22.9948565 45.1384473,25.544602 43.3039983,25.544602 C41.4329335,25.544602 38.6080284,23.4130589 35.5634288,23.4756972 C31.6455436,23.5364932 27.9803071,25.8191049 25.9701024,29.3636934 C21.821538,36.5910429 24.9155688,47.2119121 28.8902085,53.0538508 C30.8784437,55.9167876 33.201713,59.1094964 36.242651,58.997116 C39.2176806,58.8755241 40.3289686,57.0903338 43.9191429,57.0903338 C47.4763629,57.0903338 48.5199118,58.997116 51.6212658,58.9252662 C54.8141591,58.8755241 56.8243638,56.0512756 58.7430291,53.1643889 C61.0406674,49.8869342 61.9633843,46.655537 62,46.4897299 C61.9267685,46.4639376 55.8009536,44.1094761 55.7387068,36.994507 Z M49.8801869,19.5331716 C51.4802952,17.5195358 52.5751061,14.7800332 52.2711953,12 C49.9552492,12.1031689 47.0589434,13.612014 45.391096,15.5814345 C43.9154813,17.3168827 42.5973143,20.1613965 42.9378408,22.8364185 C45.5393898,23.0317025 48.2105087,21.5154882 49.8801869,19.5331716 L49.8801869,19.5331716 Z" id="Shape" fill="#FFFFFF"></path>
            <path d="M241.256471,0 L117,0 L165.669044,74 L241.256471,74 C246.080095,73.9959286 249.990829,70.0859657 250,65.258196 L250,8.74550501 C249.99185,3.91671204 246.081115,0.00509323616 241.256471,0 L241.256471,0 Z" id="Path" fill="url(#linearGradient-4-73ravnk3-1)"></path>
            <g transform="translate(79, 33)" fill="#FFFFFF" id="Shape">
                <path d="M20.8557389,24.8424925 L16.6400395,24.8424925 L14.3307792,17.651874 L6.30405779,17.651874 L4.10432031,24.8424925 L0,24.8424925 L7.95432498,0.362382157 L12.8661439,0.362382157 L20.8557389,24.8424925 L20.8557389,24.8424925 Z M13.6346597,14.6350885 L11.5463014,8.24281444 C11.3253995,7.58979076 10.9095841,6.05196597 10.3007116,3.63117958 L10.2264589,3.63117958 C9.98142484,4.67233847 9.58974162,6.21016326 9.05326556,8.24281444 L7.00017725,14.6350885 L13.6346597,14.6350885 Z M41.2715303,15.7994941 C41.2715303,18.8015636 40.4491812,21.1745229 38.8026266,22.9165325 C37.3287097,24.4672338 35.4965233,25.2416648 33.3116364,25.2416648 C30.9522555,25.2416648 29.2555803,24.4083697 28.2253235,22.7381007 L28.2253235,32 L24.2676524,32 L24.2676524,12.992412 C24.2676524,11.1069211 24.2175318,9.17360313 24.1210032,7.19061853 L27.6016005,7.19061853 L27.8225024,9.9885031 L27.8967552,9.9885031 C29.2165976,7.88043228 31.2195654,6.82639687 33.9075146,6.82639687 C36.0088672,6.82639687 37.7630882,7.64865486 39.1664651,9.29501035 C40.5679856,10.9450448 41.2715303,13.1119798 41.2715303,15.7994941 Z M37.2396064,15.9429754 C37.2396064,14.2248793 36.8497795,12.8084617 36.0664131,11.6918832 C35.2106502,10.5311566 34.0615891,9.94987353 32.6210859,9.94987353 C31.6446623,9.94987353 30.757342,10.2736261 29.964694,10.9119338 C29.1701897,11.5557599 28.6504205,12.396413 28.4072428,13.4375719 C28.2986833,13.8269425 28.236996,14.227674 28.2234672,14.6314095 L28.2234672,17.5764544 C28.2234672,18.8585882 28.6207194,19.9420556 29.4152237,20.8286963 C30.2097281,21.7116579 31.2418412,22.1549782 32.5115631,22.1549782 C34.0021869,22.1549782 35.162386,21.5828926 35.9921603,20.4479191 C36.8237911,19.3092665 37.2396064,17.8082318 37.2396064,15.9429754 L37.2396064,15.9429754 Z M61.7597181,15.7994941 C61.7597181,18.8015636 60.937369,21.1745229 59.2908145,22.9165325 C57.8150412,24.4672338 55.9847111,25.2416648 53.7979679,25.2416648 C51.438587,25.2416648 49.7419118,24.4083697 48.711655,22.7381007 L48.711655,32 L44.7539839,32 L44.7539839,12.992412 C44.7539839,11.1069211 44.7038633,9.17360313 44.6073347,7.19061853 L48.087932,7.19061853 L48.3088339,9.9885031 L48.3830867,9.9885031 C49.7010728,7.88043228 51.7040405,6.82639687 54.3938461,6.82639687 C56.4933424,6.82639687 58.2475634,7.64865486 59.6546529,9.29501035 C61.0543171,10.9450448 61.7597181,13.1119798 61.7597181,15.7994941 L61.7597181,15.7994941 Z M57.7259379,15.9429754 C57.7259379,14.2248793 57.3342547,12.8084617 56.5508883,11.6918832 C55.6951254,10.5311566 54.5497769,9.94987353 53.1092737,9.94987353 C52.1328501,9.94987353 51.2455299,10.2736261 50.4491692,10.9119338 C49.6546649,11.5557599 49.136752,12.396413 48.8935743,13.4375719 C48.7729136,13.9232007 48.7079424,14.318694 48.7079424,14.6314095 L48.7079424,17.5764544 C48.7079424,18.8585882 49.1070509,19.9420556 49.8978426,20.8286963 C50.6923469,21.7098183 51.7244601,22.1549782 52.9978946,22.1549782 C54.4903747,22.1549782 55.6505738,21.5828926 56.4784919,20.4479191 C57.3101226,19.3092665 57.7259379,17.8082318 57.7259379,15.9429754 L57.7259379,15.9429754 Z M84.666689,17.9756266 C84.666689,20.0597839 83.9315869,21.7539664 82.4706642,23.0618533 C80.8630923,24.4893079 78.6188032,25.2048747 75.7415094,25.2048747 C73.0832613,25.2048747 70.9522076,24.6971718 69.3446357,23.6799264 L70.2598008,20.411129 C71.9954586,21.4302138 73.9018978,21.9379168 75.9772619,21.9379168 C77.469742,21.9379168 78.6299411,21.6031272 79.4578592,20.9390665 C80.2876336,20.2731662 80.7071616,19.3828466 80.7071616,18.2717866 C80.7071616,17.2766153 80.36003,16.4433203 79.6787611,15.7645436 C78.9937795,15.0876063 77.8614252,14.4566567 76.2705602,13.8772132 C71.945338,12.2786848 69.7808706,9.94067602 69.7808706,6.86502644 C69.7808706,4.8562888 70.5456738,3.21177282 72.0715677,1.92595999 C73.5974615,0.641986664 75.6208487,0 78.1380167,0 C80.3860184,0 82.2590439,0.388135203 83.745955,1.16256611 L82.7528246,4.3596229 C81.3531604,3.60910554 79.7734333,3.23384686 78.0062181,3.23384686 C76.6102665,3.23384686 75.5150386,3.57415498 74.7316721,4.25109221 C74.0726791,4.8562888 73.7385417,5.59392964 73.7385417,6.46953323 C73.7385417,7.43527248 74.119087,8.23729593 74.876465,8.86640607 C75.5336018,9.44584962 76.7327835,10.0767993 78.4665851,10.7537365 C80.5939261,11.603587 82.1569463,12.5932398 83.157502,13.7300529 C84.165483,14.8668659 84.666689,16.285123 84.666689,17.9756266 Z M97.7852922,10.1338239 L93.4229436,10.1338239 L93.4229436,18.7040699 C93.4229436,20.8838814 94.1914595,21.9710278 95.7322039,21.9710278 C96.4394613,21.9710278 97.0260579,21.9121637 97.4901376,21.788917 L97.5996604,24.7670729 C96.8200066,25.0558749 95.7934624,25.2011957 94.5218842,25.2011957 C92.958864,25.2011957 91.7374064,24.7284433 90.8556551,23.7829386 C89.9776164,22.8374339 89.5358126,21.2536215 89.5358126,19.0241435 L89.5358126,10.1264659 L86.9369666,10.1264659 L86.9369666,7.18326052 L89.5358126,7.18326052 L89.5358126,3.95125316 L93.4229436,2.78868705 L93.4229436,7.18326052 L97.7852922,7.18326052 L97.7852922,10.1338239 L97.7852922,10.1338239 Z M117.428855,15.8712348 C117.428855,18.5845022 116.645489,20.8121407 115.082468,22.5541504 C113.447052,24.3476661 111.271446,25.2416648 108.559365,25.2416648 C105.941956,25.2416648 103.861023,24.3826167 102.309141,22.6663601 C100.757258,20.9464245 99.9813171,18.7794895 99.9813171,16.1655553 C99.9813171,13.4302138 100.783247,11.1896988 102.381537,9.44768912 C103.98354,7.70383996 106.140582,6.83191538 108.852663,6.83191538 C111.46636,6.83191538 113.565856,7.69280294 115.154865,9.41089906 C116.673333,11.0774891 117.428855,13.229708 117.428855,15.8712348 Z M113.326391,15.9613704 C113.326391,14.344447 112.973691,12.9574615 112.266433,11.7967349 C111.436659,10.3950333 110.248615,9.69418257 108.709727,9.69418257 C107.124431,9.69418257 105.908542,10.3950333 105.080624,11.7967349 C104.37151,12.9574615 104.01881,14.3683605 104.01881,16.0349506 C104.01881,17.6537135 104.37151,19.044378 105.080624,20.2014256 C105.936387,21.6031272 107.13,22.3039779 108.676313,22.3039779 C110.189213,22.3039779 111.3754,21.5884111 112.233019,20.1664751 C112.960696,18.9781559 113.326391,17.5819729 113.326391,15.9613704 Z M130.298712,10.6396873 C129.887085,10.5660465 129.469544,10.5297195 129.051266,10.5311566 C127.659027,10.5311566 126.582362,11.0498965 125.824984,12.0947344 C125.167847,13.0144861 124.837422,14.1770522 124.837422,15.5805932 L124.837422,24.8424925 L120.879751,24.8424925 L120.879751,12.7495976 C120.883281,10.8965984 120.844907,9.04375346 120.76466,7.19245804 L124.211843,7.19245804 L124.356636,10.5697862 L124.466159,10.5697862 C124.885687,9.40905955 125.542823,8.47275236 126.444994,7.77190159 C127.270784,7.15948994 128.274144,6.82785106 129.305581,6.82639687 C129.671276,6.82639687 130.001701,6.85214992 130.294999,6.8981375 L130.298712,10.6396873 L130.298712,10.6396873 Z M147.998709,15.181421 C148.008745,15.7776034 147.960252,16.3733401 147.853916,16.9602207 L135.980903,16.9602207 C136.025454,18.7040699 136.600913,20.0395493 137.703566,20.959301 C138.704122,21.7797195 139.997976,22.1917682 141.586985,22.1917682 C143.344918,22.1917682 144.948778,21.9158427 146.391137,21.3584732 L147.011147,24.0790986 C145.32561,24.807542 143.335637,25.1699241 141.039371,25.1699241 C138.277169,25.1699241 136.108989,24.3642217 134.531118,22.7564957 C132.95696,21.1469303 132.168024,18.9836744 132.168024,16.274086 C132.168024,13.6141642 132.90127,11.3975627 134.369618,9.62979995 C135.90665,7.74246953 137.98387,6.79880432 140.597567,6.79880432 C143.164855,6.79880432 145.108421,7.74246953 146.428263,9.62979995 C147.473371,11.1253162 147.998709,12.9795355 147.998709,15.181421 L147.998709,15.181421 Z M144.224813,14.1641757 C144.252658,12.9997701 143.992774,11.9972407 143.456297,11.1492297 C142.771316,10.0565647 141.716927,9.51207174 140.304269,9.51207174 C139.010415,9.51207174 137.956026,10.0436882 137.154096,11.1106001 C136.495103,11.9586112 136.10342,12.977696 135.982759,14.1604967 L144.224813,14.1641757 Z"></path>
            </g>
            <g transform="translate(81, 12)" fill="#FFFFFF" id="Shape">
                <path d="M2.84731705,12.9088307 C1.74590869,12.9088307 0.793088311,12.8548733 0,12.763704 L0,0.792614856 C1.10922518,0.620965601 2.23013882,0.536361233 3.35251616,0.539485362 C7.89373611,0.539485362 9.98511184,2.77787319 9.98511184,6.42650637 C9.98511184,10.6351796 7.51483678,12.9088307 2.84731705,12.9088307 Z M3.51224823,2.07456705 C2.89932284,2.07456705 2.37740758,2.11177902 1.94464511,2.20108773 L1.94464511,11.3012738 C2.17867117,11.3384858 2.62814979,11.3552311 3.25964868,11.3552311 C6.23512285,11.3552311 7.92902576,9.65836554 7.92902576,6.48046372 C7.92902576,3.64677258 6.39671228,2.07456705 3.51224823,2.07456705 L3.51224823,2.07456705 Z M16.5025518,13 C13.943124,13 12.2845107,11.0854444 12.2845107,8.48618864 C12.2845107,5.77715758 13.9784136,3.84585659 16.6474251,3.84585659 C19.169706,3.84585659 20.8654662,5.66924288 20.8654662,8.34292257 C20.8654662,11.0854444 19.1177002,13 16.5025518,13 Z M16.5768458,5.27107485 C15.1708321,5.27107485 14.2700175,6.58837842 14.2700175,8.43037069 C14.2700175,10.2370116 15.1894056,11.5543152 16.5582723,11.5543152 C17.927139,11.5543152 18.8465271,10.1458423 18.8465271,8.39315872 C18.8465271,6.6069844 17.9457125,5.27107485 16.5768458,5.27107485 Z M35.46052,4.02633462 L32.7209292,12.800916 L30.9360162,12.800916 L29.8011755,8.99041076 C29.5190048,8.0583356 29.2840597,7.11256449 29.09724,6.15671962 L29.060093,6.15671962 C28.9170771,7.11306712 28.645904,8.07127523 28.3580148,8.99041076 L27.1507375,12.800916 L25.347251,12.800916 L22.7692496,4.02633462 L24.7696152,4.02633462 L25.76144,8.19779591 C25.995466,9.19135537 26.1923451,10.1290969 26.3557919,11.0147417 L26.3929389,11.0147417 C26.5359548,10.2760842 26.7699808,9.35322742 27.1135905,8.21640189 L28.3580148,4.02819522 L29.9441914,4.02819522 L31.1347526,8.12709317 C31.4226418,9.12065264 31.6566678,10.0956061 31.8386881,11.0166023 L31.8906939,11.0166023 C32.0169937,10.1142121 32.2157301,9.15600401 32.4850458,8.12709317 L33.5493072,4.02819522 L35.46052,4.02633462 L35.46052,4.02633462 Z M45.5459287,12.800916 L43.5994262,12.800916 L43.5994262,7.76241592 C43.5994262,6.21067697 43.0050743,5.4329469 41.8330867,5.4329469 C40.6796725,5.4329469 39.8865842,6.42650637 39.8865842,7.58193788 L39.8865842,12.800916 L37.9400818,12.800916 L37.9400818,6.53442107 C37.9400818,5.7585516 37.9215083,4.92686418 37.8676451,4.02447402 L39.5801215,4.02447402 L39.6711317,5.37898955 L39.7249948,5.37898955 C40.2487674,4.44124803 41.3111714,3.84585659 42.5017326,3.84585659 C44.3405088,3.84585659 45.547786,5.25432947 45.547786,7.54658652 L45.5459287,12.800916 L45.5459287,12.800916 Z M50.9136693,12.800916 L48.9653094,12.800916 L48.9653094,0 L50.9136693,0 L50.9136693,12.800916 Z M58.0106024,13 C55.4530319,13 53.7925612,11.0854444 53.7925612,8.48618864 C53.7925612,5.77715758 55.4864641,3.84585659 58.1536183,3.84585659 C60.6777565,3.84585659 62.3716609,5.66924288 62.3716609,8.34292257 C62.3735167,11.0854444 60.6238933,13 58.0106024,13 Z M58.083039,5.27107485 C56.6770253,5.27107485 55.7762107,6.58837842 55.7762107,8.43037069 C55.7762107,10.2370116 56.6974561,11.5543152 58.0626081,11.5543152 C59.4333322,11.5543152 60.3508658,10.1458423 60.3508658,8.39315872 C60.3527203,6.6069844 59.453763,5.27107485 58.083039,5.27107485 L58.083039,5.27107485 Z M70.0462282,12.800916 L69.9050697,11.7906111 L69.8530639,11.7906111 C69.258712,12.6036926 68.3913297,13 67.2917787,13 C65.7223182,13 64.6079084,11.8985258 64.6079084,10.4174896 C64.6079084,8.25175326 66.4819742,7.13167311 69.7267641,7.13167311 L69.7267641,6.96980106 C69.7267641,5.81436954 69.1156961,5.23572349 67.9084188,5.23572349 C67.0447512,5.23572349 66.2869525,5.45341348 65.620164,5.88693288 L65.2245485,4.60498068 C66.0343529,4.09889795 67.0447512,3.84585659 68.2315976,3.84585659 C70.5198524,3.84585659 71.6751239,5.05524546 71.6751239,7.47588378 L71.6751239,10.707743 C71.6751239,11.5933877 71.7141282,12.2799485 71.8014237,12.8027766 L70.0462282,12.800916 L70.0462282,12.800916 Z M69.7787699,8.43037069 C67.6168149,8.43037069 66.5321227,8.9550594 66.5321227,10.1997996 C66.5321227,11.1207958 67.0911849,11.5710605 67.8675571,11.5710605 C68.8575244,11.5710605 69.7787699,10.8137971 69.7787699,9.78488622 L69.7787699,8.43037069 L69.7787699,8.43037069 Z M81.1271764,12.800916 L81.0361663,11.3924431 L80.9823031,11.3924431 C80.4232409,12.4567053 79.4834219,13 78.1702757,13 C76.0584691,13 74.4945807,11.1394017 74.4945807,8.52154 C74.4945807,5.77715758 76.116047,3.84399599 78.3300078,3.84399599 C79.5019954,3.84399599 80.3322307,4.24030342 80.8002828,5.03663947 L80.8392872,5.03663947 L80.8392872,0 L82.787647,0 L82.787647,10.4360956 C82.787647,11.2845284 82.8080778,12.0790039 82.8600836,12.800916 L81.1271764,12.800916 Z M80.8392872,7.63775583 C80.8392872,6.40976098 80.0276254,5.36224417 78.7887732,5.36224417 C77.3456125,5.36224417 76.4633714,6.64419636 76.4633714,8.44897667 C76.4633714,10.2184056 77.3790447,11.4296551 78.7497688,11.4296551 C79.9737622,11.4296551 80.8392872,10.3635323 80.8392872,9.10018606 L80.8392872,7.63775583 Z M95.1408797,13 C92.5833092,13 90.9246959,11.0854444 90.9246959,8.48618864 C90.9246959,5.77715758 92.6185988,3.84585659 95.285753,3.84585659 C97.8098912,3.84585659 99.5037955,5.66924288 99.5037955,8.34292257 C99.5056514,11.0854444 97.7578854,13 95.1408797,13 Z M95.2133163,5.27107485 C93.80916,5.27107485 92.9083454,6.58837842 92.9083454,8.43037069 C92.9083454,10.2370116 93.8277335,11.5543152 95.1947428,11.5543152 C96.5654669,11.5543152 97.4830091,10.1458423 97.4830091,8.39315872 C97.4867123,6.6069844 96.5858977,5.27107485 95.2133163,5.27107485 Z M109.971817,12.800916 L108.023457,12.800916 L108.023457,7.76241592 C108.023457,6.21067697 107.429105,5.4329469 106.257117,5.4329469 C105.103703,5.4329469 104.312472,6.42650637 104.312472,7.58193788 L104.312472,12.800916 L102.364113,12.800916 L102.364113,6.53442107 C102.364113,5.7585516 102.345539,4.92686418 102.291676,4.02447402 L104.004152,4.02447402 L104.095162,5.37898955 L104.149026,5.37898955 C104.670941,4.44124803 105.735202,3.84399599 106.923906,3.84399599 C108.762682,3.84399599 109.971817,5.25246887 109.971817,7.54472592 L109.971817,12.800916 Z M123.067989,5.48876485 L120.926465,5.48876485 L120.926465,9.74953485 C120.926465,10.8342636 121.30165,11.3756977 122.059448,11.3756977 C122.403058,11.3756977 122.690947,11.3384858 122.923116,11.2845284 L122.976979,12.7655646 C122.599937,12.9106913 122.094738,12.9832546 121.466954,12.9832546 C119.932783,12.9832546 119.015252,12.1348218 119.015252,9.9132675 L119.015252,5.48876485 L117.737396,5.48876485 L117.737396,4.02633462 L119.015252,4.02633462 L119.015252,2.41877773 L120.926465,1.84013167 L120.926465,4.02447402 L123.067989,4.02447402 L123.067989,5.48876485 L123.067989,5.48876485 Z M133.372565,12.800916 L131.42792,12.800916 L131.42792,7.79962788 C131.42792,6.22928295 130.835426,5.4348075 129.661581,5.4348075 C128.65304,5.4348075 127.713221,6.12136826 127.713221,7.51123515 L127.713221,12.800916 L125.768576,12.800916 L125.768576,0 L127.713221,0 L127.713221,5.27107485 L127.752225,5.27107485 C128.365151,4.31472735 129.252964,3.84399599 130.385947,3.84399599 C132.239582,3.84399599 133.372565,5.28782024 133.372565,7.58193788 L133.372565,12.800916 L133.372565,12.800916 Z M143.929741,8.88249606 L138.088376,8.88249606 C138.125523,10.5440103 139.223217,11.4817518 140.848398,11.4817518 C141.712065,11.4817518 142.507011,11.3366252 143.209089,11.0668384 L143.511837,12.4213539 C142.683459,12.78231 141.708351,12.962788 140.57351,12.962788 C137.833919,12.962788 136.212453,11.2287105 136.212453,8.54014599 C136.212453,5.84972091 137.872924,3.82725061 140.354343,3.82725061 C142.592449,3.82725061 143.996605,5.48876485 143.996605,7.99871189 C144.009192,8.29491734 143.986748,8.59157431 143.929741,8.88249606 L143.929741,8.88249606 Z M142.144828,7.49262917 C142.144828,6.13811364 141.463181,5.18176614 140.218756,5.18176614 C139.100632,5.18176614 138.216533,6.15671962 138.090234,7.49262917 L142.144828,7.49262917 L142.144828,7.49262917 Z"></path>
            </g>
        </g>
    </g>
</svg>