<svg width="716px" height="208px" viewBox="0 0 716 208" version="1.1" xmlns="http://www.w3.org/2000/svg" xmlns:xlink="http://www.w3.org/1999/xlink">
    <g id="Nutrim" stroke="none" stroke-width="1" fill="none" fill-rule="evenodd">
        <g id="Medium" transform="translate(-362, -160)" fill-rule="nonzero">
            <g id="logo_outlines-copy" transform="translate(362, 160)">
                <g id="nutrim-copy" transform="translate(201, 32)" fill="#FFF5ED">
                    <path d="M88.2402881,134.479632 L88.2402881,79.0315375 C88.2402881,61.0289093 79.6314795,42.3061761 55.5985555,42.3061761 C43.2233932,42.3061761 33.000433,49.3272011 28.8753788,57.2483574 L28.5166785,57.2483574 L28.5166785,44.826544 L0,44.826544 L0,134.479632 L29.5927796,134.479632 L29.5927796,85.8725361 C29.5927796,75.6110381 34.9732849,66.609724 45.3755953,66.609724 C55.9572559,66.609724 58.6475086,75.6110381 58.6475086,85.5124836 L58.6475086,134.479632 L88.2402881,134.479632 Z" id="Path"></path>
                    <path d="M184.071451,134.479632 L184.071451,44.826544 L154.658022,44.826544 L154.658022,93.2536137 C154.658022,103.515112 149.098166,112.516426 138.875206,112.516426 C128.114196,112.516426 125.603293,103.515112 125.603293,93.4336399 L125.603293,44.826544 L96.0105135,44.826544 L96.0105135,100.274639 C96.0105135,118.277267 104.439972,137 128.472896,137 C141.027408,137 151.250369,129.978975 155.375423,122.057819 L155.734123,122.057819 L155.734123,134.479632 L184.071451,134.479632 Z" id="Path"></path>
                    <path d="M255.089275,66.9697766 L255.089275,44.826544 L234.105304,44.826544 L234.105304,21.2431012 L205.229925,21.2431012 L205.229925,44.826544 L191.061261,44.826544 L191.061261,66.9697766 L205.409275,66.9697766 L205.409275,104.775296 C205.409275,123.858081 213.300683,136.639947 237.154257,136.639947 C243.431513,136.639947 250.24682,135.379763 254.192524,133.939553 L253.833824,112.336399 C251.681622,113.236531 248.094618,113.77661 245.225015,113.77661 C236.795557,113.77661 234.105304,109.455979 234.105304,101.17477 L234.105304,66.9697766 L255.089275,66.9697766 Z" id="Path"></path>
                    <path d="M323.237496,43.0262812 C321.802694,42.4862024 319.291792,42.3061761 316.96024,42.3061761 C306.019879,42.3061761 297.23172,48.7871222 292.747965,57.7884363 L292.389265,57.7884363 L292.389265,44.826544 L264.051937,44.826544 L264.051937,134.479632 L293.465366,134.479632 L293.465366,88.3929041 C293.465366,81.0118265 298.666521,68.0499343 314.449337,68.0499343 C316.780889,68.0499343 319.291792,68.2299606 321.982045,68.9500657 L323.237496,43.0262812 Z" id="Path"></path>
                    <path d="M362.151637,16.2023653 C362.151637,7.20105125 354.61893,0 345.292721,0 C335.787161,0 328.433804,7.56110381 328.433804,16.2023653 C328.433804,25.0236531 335.787161,32.4047306 345.292721,32.4047306 C354.61893,32.4047306 362.151637,25.3837057 362.151637,16.2023653 Z M359.999435,134.479632 L359.999435,44.826544 L330.586006,44.826544 L330.586006,134.479632 L359.999435,134.479632 Z" id="Shape"></path>
                    <path d="M515,134.479632 L515,79.0315375 C515,62.109067 506.749892,42.3061761 482.537618,42.3061761 C469.265704,42.3061761 459.939495,48.2470434 454.020939,57.60841 C448.999134,47.8869908 440.031625,42.3061761 427.118412,42.3061761 C413.667149,42.3061761 404.52029,49.6872536 400.395236,57.2483574 L400.036535,57.2483574 L400.036535,44.826544 L371.519857,44.826544 L371.519857,134.479632 L401.112636,134.479632 L401.112636,85.8725361 C401.112636,75.0709593 406.493142,66.609724 415.819351,66.609724 C424.60751,66.609724 428.553214,73.0906702 428.553214,83.3521682 L428.553214,134.479632 L457.966643,134.479632 L457.966643,86.0525624 C457.966643,75.9710907 462.809098,66.609724 472.852708,66.609724 C483.255018,66.609724 485.586571,75.2509855 485.586571,85.5124836 L485.586571,134.479632 L515,134.479632 Z" id="Path"></path>
                </g>
                <path d="M80.3876945,1.74033742 C93.9830304,8.83120802 102.097083,23.0489211 105.749143,43.0128839 C105.797809,43.2789169 105.839233,43.5445955 105.873555,43.8097181 C114.133928,42.1664485 122.457971,41.5487815 130.632775,42.3464701 C156.159581,44.8373487 174.821168,60.9200902 180.473628,91.0270548 C189.231982,137.677094 160.114239,176.449822 97.8756547,206.483716 C95.6557664,207.554947 93.3057451,208.039097 91.0001206,207.99754 C88.6949351,208.039237 86.3445549,207.555102 84.1243453,206.483716 C21.8857611,176.449822 -7.23198187,137.677094 1.52637209,91.0270548 C7.17883151,60.9200902 25.8404193,44.8373487 51.3672253,42.3464701 C59.0330444,41.5984476 66.8300985,42.0950203 74.5835793,43.5142482 C72.4513461,35.0941197 69.4537285,30.4558403 66.2080556,28.7630063 C58.7233461,24.8592332 55.8300104,15.6453693 59.7456096,8.18326534 C63.6612087,0.721161375 72.902985,-2.16343571 80.3876945,1.74033742 Z M105.234574,75.4425968 C103.035355,76.0703951 101.021705,76.7402607 99.255554,77.4005765 C98.6620775,77.6224612 98.1509052,77.8231359 97.7294489,77.9960032 C97.5979717,78.0499308 97.4914797,78.0945056 97.4108847,78.1288984 L97.3897155,78.1372594 L97.0036227,78.3015433 C95.0405139,79.1027112 93.0022532,79.4636582 91.0008236,79.4279821 C88.9984275,79.4637788 86.9598138,79.102845 84.9963773,78.3015433 L84.6199214,78.1404824 L84.5891153,78.1288984 C84.5085203,78.0945056 84.4020283,78.0499308 84.2705511,77.9960032 C83.8490948,77.8231359 83.3379225,77.6224612 82.744446,77.4005765 C80.9782945,76.7402607 78.9646447,76.0703951 76.7654257,75.4425968 C68.9628621,73.215244 61.1363839,72.1568567 54.3211543,72.8218796 C41.9332274,74.0306803 34.5815209,80.3664539 31.5158557,96.6952532 C26.0531917,125.791301 44.4891376,151.884479 90.9986192,175.731168 C137.511127,151.884104 155.946769,125.791092 150.484144,96.6952532 C147.418479,80.3664539 140.066773,74.0306803 127.678846,72.8218796 C120.863616,72.1568567 113.037138,73.215244 105.234574,75.4425968 Z" id="logo_shape" fill="#87E64B"></path>
            </g>
        </g>
    </g>
</svg>