<svg width="182px" height="208.000016px" viewBox="0 0 182 208.000016" version="1.1" xmlns="http://www.w3.org/2000/svg" xmlns:xlink="http://www.w3.org/1999/xlink">
    <g id="Nutrim" stroke="none" stroke-width="1" fill="none" fill-rule="evenodd">
        <g id="Medium" transform="translate(-362, -160)" fill="#000000" fill-rule="nonzero">
            <g id="logo_outlines-copy" transform="translate(362, 160)">
                <path d="M80.3876945,1.74033742 C93.9830304,8.83120802 102.097083,23.0489211 105.749143,43.0128839 C105.797809,43.2789169 105.839233,43.5445955 105.873555,43.8097181 C114.133928,42.1664485 122.457971,41.5487815 130.632775,42.3464701 C156.159581,44.8373487 174.821168,60.9200902 180.473628,91.0270548 C189.231982,137.677094 160.114239,176.449822 97.8756547,206.483716 C95.6557664,207.554947 93.3057451,208.039097 91.0001206,207.99754 C88.6949351,208.039237 86.3445549,207.555102 84.1243453,206.483716 C21.8857611,176.449822 -7.23198187,137.677094 1.52637209,91.0270548 C7.17883151,60.9200902 25.8404193,44.8373487 51.3672253,42.3464701 C59.0330444,41.5984476 66.8300985,42.0950203 74.5835793,43.5142482 C72.4513461,35.0941197 69.4537285,30.4558403 66.2080556,28.7630063 C58.7233461,24.8592332 55.8300104,15.6453693 59.7456096,8.18326534 C63.6612087,0.721161375 72.902985,-2.16343571 80.3876945,1.74033742 Z M105.234574,75.4425968 C103.035355,76.0703951 101.021705,76.7402607 99.255554,77.4005765 C98.6620775,77.6224612 98.1509052,77.8231359 97.7294489,77.9960032 C97.5979717,78.0499308 97.4914797,78.0945056 97.4108847,78.1288984 L97.3897155,78.1372594 L97.0036227,78.3015433 C95.0405139,79.1027112 93.0022532,79.4636582 91.0008236,79.4279821 C88.9984275,79.4637788 86.9598138,79.102845 84.9963773,78.3015433 L84.6199214,78.1404824 L84.5891153,78.1288984 C84.5085203,78.0945056 84.4020283,78.0499308 84.2705511,77.9960032 C83.8490948,77.8231359 83.3379225,77.6224612 82.744446,77.4005765 C80.9782945,76.7402607 78.9646447,76.0703951 76.7654257,75.4425968 C68.9628621,73.215244 61.1363839,72.1568567 54.3211543,72.8218796 C41.9332274,74.0306803 34.5815209,80.3664539 31.5158557,96.6952532 C26.0531917,125.791301 44.4891376,151.884479 90.9986192,175.731168 C137.511127,151.884104 155.946769,125.791092 150.484144,96.6952532 C147.418479,80.3664539 140.066773,74.0306803 127.678846,72.8218796 C120.863616,72.1568567 113.037138,73.215244 105.234574,75.4425968 Z" id="logo_shape"></path>
            </g>
        </g>
    </g>
</svg>